<svg viewBox="20 20 160.001 160" xmlns="http://www.w3.org/2000/svg">
    <g>
        <path d="m179.96 98.427-.002-.083c-.876-42.795-35.507-77.425-78.302-78.302l-.062-.001C101.062 20.03 100.535 20 100 20c-.535 0-1.062.03-1.594.041l-.062.001c-42.795.876-77.425 35.507-78.302 78.302l-.002.083c-.01.525-.04 1.046-.04 1.573 0 .535.03 1.062.041 1.594l.002.083c.888 42.79 35.521 77.413 78.317 78.281l.033.001c.536.011 1.068.041 1.607.041.539 0 1.071-.03 1.608-.041l.033-.001c42.795-.869 77.429-35.491 78.317-78.281l.002-.083c.01-.532.041-1.06.041-1.594-.001-.528-.031-1.048-.041-1.573zM177.333 100l-.001.052c-8.615 5.36-18.741 8.511-29.613 8.511-10.9 0-21.052-3.166-29.681-8.552 8.629-5.386 18.781-8.552 29.681-8.552 10.872 0 20.999 3.15 29.614 8.511v.03zm-.082-3.245a58.564 58.564 0 0 0-29.532-7.964c-11.869 0-22.921 3.537-32.181 9.596a56.705 56.705 0 0 1-13.915-13.911c6.065-9.263 9.606-20.32 9.606-32.195a58.564 58.564 0 0 0-7.964-29.532c40.054 1.674 72.323 33.949 73.986 74.006zM100 177.333l-.065-.002c-5.352-8.61-8.498-18.729-8.498-29.592 0-10.908 3.17-21.066 8.562-29.698 5.393 8.633 8.562 18.791 8.562 29.698 0 10.863-3.145 20.982-8.498 29.592l-.063.002zm0-154.666.052.001c5.36 8.615 8.511 18.741 8.511 29.613 0 10.908-3.17 21.066-8.562 29.699-5.393-8.633-8.562-18.791-8.562-29.699 0-10.872 3.15-20.998 8.511-29.613l.05-.001zm13.184 77.343A59.426 59.426 0 0 0 100 113.19a59.426 59.426 0 0 0-13.184-13.18A59.426 59.426 0 0 0 100 86.83a59.405 59.405 0 0 0 13.184 13.18zm-16.45-77.26a58.564 58.564 0 0 0-7.964 29.532c0 11.875 3.541 22.932 9.606 32.195a56.688 56.688 0 0 1-13.915 13.911c-9.26-6.059-20.312-9.596-32.18-9.596a58.56 58.56 0 0 0-29.532 7.964C24.412 56.698 56.68 24.423 96.734 22.75zM22.667 100l.001-.031c8.615-5.361 18.742-8.511 29.614-8.511 10.9 0 21.052 3.166 29.681 8.552-8.629 5.386-18.781 8.552-29.681 8.552-10.872 0-20.998-3.15-29.613-8.511a.836.836 0 0 1-.002-.051zm.083 3.265a58.564 58.564 0 0 0 29.532 7.964c11.868 0 22.92-3.538 32.18-9.596a56.688 56.688 0 0 1 13.915 13.911c-6.065 9.263-9.606 20.32-9.606 32.195a58.568 58.568 0 0 0 7.951 29.511c-40.042-1.68-72.299-33.943-73.972-73.985zm80.528 73.985a58.565 58.565 0 0 0 7.951-29.511c0-11.875-3.541-22.932-9.606-32.195a56.688 56.688 0 0 1 13.915-13.911c9.26 6.059 20.312 9.596 32.18 9.596a58.564 58.564 0 0 0 29.532-7.964c-1.673 40.043-33.931 72.305-73.972 73.985z" fill="#D8B4E2"></path>
    </g>
</svg>
